# xmcd
#
# Track frame offsets:
#	150
#	12428
#	21929
#	33773
#	46085
#	58766
#	68966
#	81935
#	94700
#	106709
#	117887
#	131248
#	142939
#	155195
#	166257
#	184188
#	196013
#	207411
#	217249
#	229713
#	240860
#	253556
#	265401
#
# Disc length: 3709 seconds
#
# Revision: 1
# Processed by: cddbd v1.5.1PL2 Copyright (c) Steve Scherf et al.
# Submitted via: audiograbber 1.82.02
#
DISCID=3f0e7b17
DTITLE=Little Jimmy Dickens - Pure Country
DYEAR=1900
DGENRE=Country
TTITLE0=I'm Blue Enough
TTITLE1=When The Ship Hit The Sand
TTITLE2=We Lived It Up 
TTITLE3=A-Sleepin' At The Foot Of The Bed
TTITLE4=Life Turnd Her That Way
TTITLE5=Fireball Mall
TTITLE6=Farewell Party
TTITLE7=Take An Old Cold Tater And Wait
TTITLE8=We Could
TTITLE9=May The Bird Of Paradise Fly Up Your Nose
TTITLE10=Another Brige To Burn
TTITLE11=It May Be Silly (But Ain't It Fun)
TTITLE12=September Memories
TTITLE13=Wabash Cannon Ball
TTITLE14=Raggedy Ann
TTITLE15=Out Behind The Barn
TTITLE16=I Love Lucy Brown
TTITLE17=Jambalaya
TTITLE18=Daddy And The Wine
TTITLE19=I'm Little But I'm Loud
TTITLE20=I'd Rather Sllep In Peace
TTITLE21=Waitress, Waittress
TTITLE22=What Will I Do Then
EXTD=
EXTT0=
EXTT1=
EXTT2=
EXTT3=
EXTT4=
EXTT5=
EXTT6=
EXTT7=
EXTT8=
EXTT9=
EXTT10=
EXTT11=
EXTT12=
EXTT13=
EXTT14=
EXTT15=
EXTT16=
EXTT17=
EXTT18=
EXTT19=
EXTT20=
EXTT21=
EXTT22=
PLAYORDER=
